<?xml version="1.0" encoding="UTF-8"?>
<svg id="Layer_1" xmlns="http://www.w3.org/2000/svg" version="1.1" xmlns:xlink="http://www.w3.org/1999/xlink" viewBox="0 0 136.8 136.8">
  <!-- Generator: Adobe Illustrator 29.3.1, SVG Export Plug-In . SVG Version: 2.1.0 Build 151)  -->
  <defs>
    <style>
      .st0 {
        font-size: 2.8px;
        letter-spacing: .2em;
      }

      .st0, .st1, .st2, .st3, .st4, .st5, .st6, .st7 {
        isolation: isolate;
      }

      .st0, .st1, .st8, .st4 {
        font-family: CourierNewPS-BoldMT, 'Courier New';
        font-weight: 700;
      }

      .st0, .st1, .st4 {
        fill: #f4f6f8;
      }

      .st9 {
        stroke-width: 1.9px;
      }

      .st9, .st10, .st3, .st6, .st11, .st12, .st7, .st13 {
        fill: none;
      }

      .st9, .st10, .st6, .st11, .st7 {
        stroke-linecap: round;
      }

      .st9, .st10, .st13 {
        stroke: #fff;
      }

      .st10 {
        stroke-width: 2.4px;
      }

      .st1, .st8 {
        font-size: 5px;
      }

      .st14 {
        fill: #141414;
      }

      .st15, .st2, .st8 {
        fill: #fff;
      }

      .st16 {
        fill: url(#radial-gradient);
      }

      .st17 {
        fill: #07080b;
      }

      .st2 {
        opacity: 0;
      }

      .st3 {
        stroke: #032b25;
      }

      .st3, .st5 {
        opacity: .3;
      }

      .st3, .st11 {
        stroke-width: 1.1px;
      }

      .st18 {
        fill: #cbd0d6;
        stroke: #8d939b;
        stroke-width: .3px;
      }

      .st4 {
        font-size: 8.6px;
        letter-spacing: 0em;
      }

      .st6 {
        stroke-width: .5px;
      }

      .st6, .st7 {
        opacity: .9;
        stroke: #e6ecff;
      }

      .st11 {
        stroke: #f2622f;
      }

      .st12 {
        stroke: #f4f6f8;
        stroke-width: .6px;
      }

      .st19 {
        fill: url(#linear-gradient);
      }

      .st7 {
        stroke-width: .9px;
      }

      .st13 {
        stroke-width: .7px;
      }

      .st20 {
        fill: #111318;
      }
    </style>
    <linearGradient id="linear-gradient" x1="-74.3" y1="347.5" x2="-73.6" y2="346.5" gradientTransform="translate(10185 47532.2) scale(136.8 -136.8)" gradientUnits="userSpaceOnUse">
      <stop offset="0" stop-color="#0e7d6c"/>
      <stop offset="1" stop-color="#065247"/>
    </linearGradient>
    <radialGradient id="radial-gradient" cx="-73.8" cy="346.3" fx="-73.8" fy="346.3" r=".9" gradientTransform="translate(6593.3 30731.1) scale(88.6 -88.6)" gradientUnits="userSpaceOnUse">
      <stop offset="0" stop-color="#212f63"/>
      <stop offset=".6" stop-color="#101a44"/>
      <stop offset="1" stop-color="#070c26"/>
    </radialGradient>
  </defs>
  <g id="breadboard">
    <polygon class="st19" points="40.1 0 96.7 0 136.8 40.1 136.8 96.7 96.7 136.8 40.1 136.8 0 96.7 0 40.1 40.1 0"/>
    <polygon class="st3" points="40.3 .6 96.5 .6 136.2 40.3 136.2 96.5 96.5 136.2 40.3 136.2 .6 96.5 .6 40.3 40.3 .6"/>
    <circle class="st5" cx="68.6" cy="66.4" r="50"/>
    <circle class="st20" cx="67.6" cy="65" r="49"/>
    <circle class="st17" cx="67.6" cy="65" r="47.3"/>
    <circle class="st16" cx="67.6" cy="65" r="44.3"/>
    <line class="st7" x1="67.6" y1="23.4" x2="67.6" y2="28"/>
    <line class="st6" x1="71.9" y1="23.6" x2="71.7" y2="26"/>
    <line class="st6" x1="76.3" y1="24.3" x2="75.8" y2="26.6"/>
    <line class="st6" x1="80.5" y1="25.4" x2="79.7" y2="27.7"/>
    <line class="st6" x1="84.5" y1="27" x2="83.6" y2="29.2"/>
    <line class="st7" x1="88.4" y1="28.9" x2="86.1" y2="33"/>
    <line class="st6" x1="92.1" y1="31.3" x2="90.6" y2="33.3"/>
    <line class="st6" x1="95.5" y1="34" x2="93.8" y2="35.9"/>
    <line class="st6" x1="98.6" y1="37.1" x2="96.7" y2="38.8"/>
    <line class="st6" x1="101.3" y1="40.5" x2="99.3" y2="42"/>
    <line class="st7" x1="103.7" y1="44.2" x2="99.6" y2="46.5"/>
    <line class="st6" x1="105.6" y1="48.1" x2="103.4" y2="49"/>
    <line class="st6" x1="107.2" y1="52.1" x2="104.9" y2="52.9"/>
    <line class="st6" x1="108.3" y1="56.3" x2="105.9" y2="56.8"/>
    <line class="st6" x1="109" y1="60.7" x2="106.6" y2="60.9"/>
    <line class="st7" x1="109.2" y1="65" x2="104.6" y2="65"/>
    <line class="st6" x1="109" y1="69.3" x2="106.6" y2="69.1"/>
    <line class="st6" x1="108.3" y1="73.7" x2="105.9" y2="73.2"/>
    <line class="st6" x1="107.2" y1="77.9" x2="104.9" y2="77.1"/>
    <line class="st6" x1="105.6" y1="81.9" x2="103.4" y2="80.9"/>
    <line class="st7" x1="103.7" y1="85.8" x2="99.6" y2="83.5"/>
    <line class="st6" x1="101.3" y1="89.5" x2="99.3" y2="88"/>
    <line class="st6" x1="98.6" y1="92.9" x2="96.7" y2="91.2"/>
    <line class="st6" x1="95.5" y1="95.9" x2="93.8" y2="94.1"/>
    <line class="st6" x1="92.1" y1="98.7" x2="90.6" y2="96.7"/>
    <line class="st7" x1="88.4" y1="101.1" x2="86.1" y2="97"/>
    <line class="st6" x1="84.5" y1="103" x2="83.6" y2="100.8"/>
    <line class="st6" x1="80.5" y1="104.6" x2="79.7" y2="102.3"/>
    <line class="st6" x1="76.3" y1="105.7" x2="75.8" y2="103.3"/>
    <line class="st6" x1="71.9" y1="106.4" x2="71.7" y2="104"/>
    <line class="st7" x1="67.6" y1="106.6" x2="67.6" y2="102"/>
    <line class="st6" x1="63.2" y1="106.4" x2="63.5" y2="104"/>
    <line class="st6" x1="58.9" y1="105.7" x2="59.5" y2="103.3"/>
    <line class="st6" x1="54.7" y1="104.6" x2="55.5" y2="102.3"/>
    <line class="st6" x1="50.7" y1="103" x2="51.7" y2="100.8"/>
    <line class="st7" x1="46.8" y1="101.1" x2="49.1" y2="97"/>
    <line class="st6" x1="43.1" y1="98.7" x2="44.6" y2="96.7"/>
    <line class="st6" x1="39.7" y1="95.9" x2="41.4" y2="94.1"/>
    <line class="st6" x1="36.7" y1="92.9" x2="38.5" y2="91.2"/>
    <line class="st6" x1="33.9" y1="89.5" x2="35.9" y2="88"/>
    <line class="st7" x1="31.5" y1="85.8" x2="35.6" y2="83.5"/>
    <line class="st6" x1="29.6" y1="81.9" x2="31.8" y2="80.9"/>
    <line class="st6" x1="28" y1="77.9" x2="30.3" y2="77.1"/>
    <line class="st6" x1="26.9" y1="73.7" x2="29.2" y2="73.2"/>
    <line class="st6" x1="26.2" y1="69.3" x2="28.6" y2="69.1"/>
    <line class="st7" x1="26" y1="65" x2="30.6" y2="65"/>
    <line class="st6" x1="26.2" y1="60.7" x2="28.6" y2="60.9"/>
    <line class="st6" x1="26.9" y1="56.3" x2="29.2" y2="56.8"/>
    <line class="st6" x1="28" y1="52.1" x2="30.3" y2="52.9"/>
    <line class="st6" x1="29.6" y1="48.1" x2="31.8" y2="49"/>
    <line class="st7" x1="31.5" y1="44.2" x2="35.6" y2="46.5"/>
    <line class="st6" x1="33.9" y1="40.5" x2="35.9" y2="42"/>
    <line class="st6" x1="36.7" y1="37.1" x2="38.5" y2="38.8"/>
    <line class="st6" x1="39.7" y1="34" x2="41.4" y2="35.9"/>
    <line class="st6" x1="43.1" y1="31.3" x2="44.6" y2="33.3"/>
    <line class="st7" x1="46.8" y1="28.9" x2="49.1" y2="33"/>
    <line class="st6" x1="50.7" y1="27" x2="51.7" y2="29.2"/>
    <line class="st6" x1="54.7" y1="25.4" x2="55.5" y2="27.7"/>
    <line class="st6" x1="58.9" y1="24.3" x2="59.5" y2="26.6"/>
    <line class="st6" x1="63.2" y1="23.6" x2="63.5" y2="26"/>
    <line class="st10" x1="67.6" y1="65" x2="54.3" y2="40.2"/>
    <line class="st9" x1="67.6" y1="65" x2="86.2" y2="42"/>
    <line class="st11" x1="67.6" y1="65" x2="81.8" y2="92.5"/>
    <ellipse class="st2" cx="55.2" cy="51.7" rx="18.6" ry="7.1"/>
  </g>
  <text class="st8" transform="translate(75.9 123.2) rotate(-90)"><tspan x="0" y="0">SDA</tspan></text>
  <text class="st1" transform="translate(122.4 44.7)"><tspan x="0" y="0">8</tspan></text>
  <text class="st1" transform="translate(122.2 51.5)"><tspan x="0" y="0">9</tspan></text>
  <text class="st8" transform="translate(120.3 59.2)"><tspan x="0" y="0">10</tspan></text>
  <text class="st8" transform="translate(120.5 73.7)"><tspan x="0" y="0">12</tspan></text>
  <text class="st1" transform="translate(10.4 44.2)"><tspan x="0" y="0">GND</tspan></text>
  <text class="st1" transform="translate(9.9 50.7)"><tspan x="0" y="0">3V3</tspan></text>
  <text class="st8" transform="translate(10.1 58.4)"><tspan x="0" y="0">A5</tspan></text>
  <text class="st8" transform="translate(10.1 65.6)"><tspan x="0" y="0">A4</tspan></text>
  <text class="st8" transform="translate(10.3 72.9)"><tspan x="0" y="0">A3</tspan></text>
  <text class="st8" transform="translate(10.1 80)"><tspan x="0" y="0">A2</tspan></text>
  <text class="st1" transform="translate(117.1 88.1)"><tspan x="0" y="0">3V3</tspan></text>
  <text class="st1" transform="translate(117.1 94.2)"><tspan x="0" y="0">GND</tspan></text>
  <text class="st8" transform="translate(10 87.2)"><tspan x="0" y="0">A1</tspan></text>
  <text class="st8" transform="translate(10 93.3)"><tspan x="0" y="0">A0</tspan></text>
  <text class="st8" transform="translate(40.1 123.1) rotate(-90)"><tspan x="0" y="0">SCK</tspan></text>
  <text class="st8" transform="translate(47.2 123.1) rotate(-90)"><tspan x="0" y="0">MO</tspan></text>
  <text class="st8" transform="translate(54.6 122.9) rotate(-90)"><tspan x="0" y="0">MI</tspan></text>
  <text class="st8" transform="translate(61.7 123.1) rotate(-90)"><tspan x="0" y="0">RX</tspan></text>
  <text class="st8" transform="translate(68.9 123.2) rotate(-90)"><tspan x="0" y="0">TX</tspan></text>
  <text class="st8" transform="translate(83.8 123.2) rotate(-90)"><tspan x="0" y="0">SCL</tspan></text>
  <text class="st8" transform="translate(91 123.3) rotate(-90)"><tspan x="0" y="0">PWR</tspan></text>
  <text class="st8" transform="translate(97.9 123.3) rotate(-90)"><tspan x="0" y="0">GND</tspan></text>
  <rect class="st13" x="127.7" y="39.9" width="7.5" height="57.8" rx=".7" ry=".7"/>
  <rect class="st13" x="1.6" y="39.6" width="7.4" height="58.1" rx=".7" ry=".7"/>
  <text class="st8" transform="translate(120.7 66.2)"><tspan x="0" y="0">11</tspan></text>
  <text class="st8" transform="translate(120.7 80.6)"><tspan x="0" y="0">13</tspan></text>
  <g id="HATCH">
    <path class="st15" d="M26.3,107.3h.6v2.1h0s0,0,0,0h-.5s0,0,0,0v-2M27,106.6h0c0,0,0,.2,0,.2h0c0,0-.1.1-.2.1h0c0,0-.2,0-.2,0h0s0,0,0-.1c0,0,0,0,0-.1h0c0,0,0-.2,0-.2h0s0,0,0,0c0,0,.1,0,.2,0h0c0,0,.2,0,.2,0h0c0,0,.1.2.1.2Z"/>
  </g>
  <g id="HATCH1" data-name="HATCH">
    <path class="st15" d="M29.3,108.1v1.2h0c0,0-.5,0-.5,0h0v-1.3c0-.1,0-.2-.2-.3,0,0-.1,0-.2,0h0c-.2,0-.3,0-.3,0h0c0,0,0,.1,0,.2v1.2h0c0,0-.4,0-.4,0h0v-2.1h0c0,0,.4,0,.4,0h0c0,0,.1,0,.2,0,0,0,.1,0,.2,0h0c.4,0,.7.1.8.4,0,.1,0,.3,0,.4Z"/>
  </g>
  <g id="HATCH2" data-name="HATCH">
    <path class="st15" d="M31.7,107.3l-1.3,3h-.6c0,0,0-.1,0-.1l.4-.9-.4-.9-.5-1.2h.6s0,0,0,0l.5,1.3s0,0,0,0l.6-1.3h.6Z"/>
  </g>
  <g id="HATCH3" data-name="HATCH">
    <path class="st15" d="M31.9,110.5h-7.8v-7.8h7.8v7.8M34.2,104.7c.1,0,.3-.1.3-.3v-.8c0-.1-.1-.3-.3-.3h-.9v-.6c0-.7-.6-1.4-1.4-1.4h-.6v-1c0-.1-.1-.3-.3-.3h-.8c-.1,0-.3.1-.3.3v1h-1.3v-1c0-.1-.1-.3-.3-.3h-.8c-.1,0-.3.1-.3.3v1h-1.3v-1c0-.1-.1-.3-.3-.3h-.8c-.1,0-.3.1-.3.3v1h-.6c-.7,0-1.4.6-1.4,1.4v.6h-.9c-.1,0-.3.1-.3.3v.8c0,.1.1.3.3.3h.9v1.3h-.9c-.1,0-.3.1-.3.3v.8c0,.1.1.3.3.3h.9v1.3h-.9c-.1,0-.3.1-.3.3v.8c0,.1.1.3.3.3h.9v.6c0,.7.6,1.4,1.4,1.4h.6v1c0,.1.1.3.3.3h.8c.1,0,.3-.1.3-.3v-1h1.3v1c0,.1.1.3.3.3h.8c.1,0,.3-.1.3-.3v-1h1.3v1c0,.1.1.3.3.3h.8c.1,0,.3-.1.3-.3v-1h.6c.7,0,1.4-.6,1.4-1.4v-.6h.9c.1,0,.3-.1.3-.3v-.8c0-.1-.1-.3-.3-.3h-.9v-1.3h.9c.1,0,.3-.1.3-.3v-.8c0-.1-.1-.3-.3-.3h-.9v-1.3h.9Z"/>
  </g>
  <g id="HATCH4" data-name="HATCH">
    <path class="st15" d="M25.9,109.3h0s0,0-.2,0c0,0-.2,0-.3,0h0c-.1,0-.3,0-.4-.1,0,0,0,0,0,0h0s0,0,0,0c0,0,0,0,0,0,0,0,0-.2,0-.3v-.9h-.3s0,0,0,0v-.5s0,0,0,0h.3v-1h.5s0,0,0,0v1h.5s0,0,0,0v.4h0s0,0,0,0h-.4v.9c0,0,0,0,0,0,0,0,0,0,0,0s0,0,.2,0h0s.2.5.2.5Z"/>
  </g>
  <rect class="st12" x="35.9" y="124.4" width="64.9" height="7.4" rx=".9" ry=".9"/>
  <circle id="pin-GND" class="st18" cx="5.40" cy="43.20" r="2.6"/>
  <circle class="st14" cx="5.4" cy="43.5" r="1.3"/>
  <circle id="pin-3V3" class="st18" cx="5.40" cy="50.40" r="2.6"/>
  <circle class="st14" cx="5.4" cy="50.7" r="1.3"/>
  <circle id="pin-A5" class="st18" cx="5.40" cy="57.60" r="2.6"/>
  <circle class="st14" cx="5.4" cy="57.9" r="1.3"/>
  <circle id="pin-A4" class="st18" cx="5.40" cy="64.80" r="2.6"/>
  <circle class="st14" cx="5.4" cy="65.1" r="1.3"/>
  <circle id="pin-A3" class="st18" cx="5.40" cy="72.00" r="2.6"/>
  <circle class="st14" cx="5.4" cy="72.3" r="1.3"/>
  <circle id="pin-A2" class="st18" cx="5.40" cy="79.20" r="2.6"/>
  <circle class="st14" cx="5.4" cy="79.5" r="1.3"/>
  <circle id="pin-A1" class="st18" cx="5.40" cy="86.40" r="2.6"/>
  <circle class="st14" cx="5.4" cy="86.7" r="1.3"/>
  <circle id="pin-A0" class="st18" cx="5.40" cy="93.60" r="2.6"/>
  <circle class="st14" cx="5.4" cy="93.9" r="1.3"/>
  <circle id="pin-D8" class="st18" cx="131.40" cy="43.20" r="2.6"/>
  <circle class="st14" cx="131.4" cy="43.5" r="1.3"/>
  <circle id="pin-D9" class="st18" cx="131.40" cy="50.40" r="2.6"/>
  <circle class="st14" cx="131.4" cy="50.7" r="1.3"/>
  <circle id="pin-D10" class="st18" cx="131.40" cy="57.60" r="2.6"/>
  <circle class="st14" cx="131.4" cy="57.9" r="1.3"/>
  <circle id="pin-D11" class="st18" cx="131.40" cy="64.80" r="2.6"/>
  <circle class="st14" cx="131.4" cy="65.1" r="1.3"/>
  <circle id="pin-D12" class="st18" cx="131.40" cy="72.00" r="2.6"/>
  <circle class="st14" cx="131.4" cy="72.3" r="1.3"/>
  <circle id="pin-D13" class="st18" cx="131.40" cy="79.20" r="2.6"/>
  <circle class="st14" cx="131.4" cy="79.5" r="1.3"/>
  <circle id="pin-3V3.2" class="st18" cx="131.40" cy="86.40" r="2.6"/>
  <circle class="st14" cx="131.4" cy="86.7" r="1.3"/>
  <circle id="pin-GND.2" class="st18" cx="131.40" cy="93.60" r="2.6"/>
  <circle class="st14" cx="131.4" cy="93.9" r="1.3"/>
  <circle id="pin-SCK" class="st18" cx="39.60" cy="127.80" r="2.6"/>
  <circle class="st14" cx="39.6" cy="128.1" r="1.3"/>
  <circle id="pin-MO" class="st18" cx="46.80" cy="127.80" r="2.6"/>
  <circle class="st14" cx="46.8" cy="128.1" r="1.3"/>
  <circle id="pin-MI" class="st18" cx="54.00" cy="127.80" r="2.6"/>
  <circle class="st14" cx="54" cy="128.1" r="1.3"/>
  <circle id="pin-RX" class="st18" cx="61.20" cy="127.80" r="2.6"/>
  <circle class="st14" cx="61.2" cy="128.1" r="1.3"/>
  <circle id="pin-TX" class="st18" cx="68.40" cy="127.80" r="2.6"/>
  <circle class="st14" cx="68.4" cy="128.1" r="1.3"/>
  <circle id="pin-SDA" class="st18" cx="75.60" cy="127.80" r="2.6"/>
  <circle class="st14" cx="75.6" cy="128.1" r="1.3"/>
  <circle id="pin-SCL" class="st18" cx="82.80" cy="127.80" r="2.6"/>
  <circle class="st14" cx="82.8" cy="128.1" r="1.3"/>
  <circle id="pin-PWR" class="st18" cx="90.00" cy="127.80" r="2.6"/>
  <circle class="st14" cx="90" cy="128.1" r="1.3"/>
  <circle id="pin-GND.3" class="st18" cx="97.20" cy="127.80" r="2.6"/>
  <circle class="st14" cx="97.2" cy="128.1" r="1.3"/>
  <text class="st4" transform="translate(36.5 12.8)"><tspan x="0" y="0">tinyDisplay</tspan></text>
  <text class="st0" transform="translate(102.3 122.2) rotate(-45)"><tspan x="0" y="0">BOARD DESIGN BY:</tspan></text>
  <text class="st0" transform="translate(106.5 123.1) rotate(-45)"><tspan x="0" y="0">GEOFF McINTYRE</tspan></text>
</svg>